<svg version="1.0" xmlns="http://www.w3.org/2000/svg"
 width="40.000000pt" height="34.000000pt" viewBox="0 0 560.000000 554.000000"
 preserveAspectRatio="xMidYMid meet">

<g transform="translate(0.000000,554.000000) scale(0.100000,-0.100000)"
fill="#000000" stroke="none">
<path d="M2551 5530 c-866 -84 -1628 -542 -2103 -1265 -93 -141 -220 -394
-277 -552 -199 -550 -219 -1157 -56 -1717 94 -322 278 -677 491 -946 96 -121
351 -372 469 -461 408 -310 824 -486 1335 -566 146 -22 603 -25 750 -5 747
106 1384 465 1845 1042 250 313 441 715 529 1110 49 221 60 337 60 600 0 263
-12 380 -60 598 -251 1127 -1194 1987 -2354 2147 -137 19 -498 27 -629 15z
m613 -559 c242 -43 434 -105 651 -210 341 -165 627 -400 847 -695 32 -43 64
-88 69 -98 10 -18 8 -19 -18 -14 -15 3 -642 139 -1393 302 -1406 305 -1459
316 -1548 334 l-52 11 -318 -230 c-174 -127 -330 -240 -347 -251 -167 -118
-273 -194 -289 -208 -19 -17 -19 -17 0 16 47 82 187 257 288 361 377 386 860
626 1406 696 162 21 551 13 704 -14z m-609 -1066 c468 -90 1198 -232 1624
-315 426 -82 782 -150 792 -150 17 0 25 -20 58 -145 62 -239 78 -597 36 -845
-102 -611 -448 -1139 -980 -1497 -282 -189 -642 -322 -1015 -375 -141 -19
-506 -17 -650 5 -253 39 -476 107 -695 211 -693 331 -1158 949 -1271 1686 -36
237 -20 561 39 796 l22 89 555 361 555 360 40 -8 c22 -4 423 -82 890 -173z"/>
<path d="M1652 3379 c-207 -27 -395 -149 -516 -336 -84 -131 -123 -253 -132
-413 -19 -329 143 -631 414 -773 134 -69 185 -82 342 -82 114 0 146 4 205 24
190 63 338 189 426 363 16 32 29 60 29 63 0 3 -70 5 -155 5 l-156 0 -57 -55
c-82 -81 -162 -118 -269 -123 -105 -6 -191 16 -271 67 -233 151 -309 468 -176
733 93 184 284 282 490 250 102 -16 172 -52 245 -129 l61 -63 144 0 c79 0 144
2 144 4 0 15 -39 92 -75 146 -114 175 -311 296 -522 320 -49 5 -92 9 -98 9 -5
-1 -39 -5 -73 -10z"/>
<path d="M2630 3225 l0 -145 259 -2 260 -3 -267 -505 -266 -505 -4 -127 -4
-128 446 0 446 0 0 130 0 130 -280 0 c-154 0 -280 2 -280 6 0 3 122 234 270
515 l270 509 0 135 0 135 -425 0 -425 0 0 -145z"/>
<path d="M3560 3231 l0 -138 269 -509 269 -509 -284 -3 -284 -2 0 -130 0 -130
450 0 450 0 0 128 0 129 -264 504 -264 504 254 3 254 2 0 145 0 145 -425 0
-425 0 0 -139z m830 -6 l0 -125 -254 0 c-140 0 -257 -4 -260 -8 -2 -4 117
-239 265 -522 l269 -514 0 -113 0 -113 -430 0 -430 0 0 110 0 110 285 0 c256
0 285 2 285 16 0 9 -121 246 -270 527 l-270 511 0 123 0 123 405 0 405 0 0
-125z"/>
</g>
</svg>
